<svg xmlns="http://www.w3.org/2000/svg" version="1.1" xmlns:xlink="http://www.w3.org/1999/xlink" viewBox="0 0 200 200"><rect width="200" height="200" fill="url('#gradient')"></rect><defs><linearGradient id="gradient" gradientTransform="rotate(22 0.5 0.5)"><stop offset="0%" stop-color="#cfecec"></stop><stop offset="100%" stop-color="#abc7db"></stop></linearGradient></defs><g><g fill="#0c0c06" transform="matrix(3.9786799501867995,0,0,3.9786799501867995,20.604382517655495,127.89226446222992)" stroke="#2a4a46" stroke-width="0.2"><path d="M12.24-14.22L12.24-11.57L7.97-11.57L7.97 0L4.54 0L4.54-11.57L0.35-11.57L0.35-14.22L12.24-14.22ZM17.77 0.20L17.77 0.20Q15.34 0.20 13.84-1.25Q12.33-2.71 12.33-5.03L12.33-5.03L12.33-5.30Q12.33-6.92 12.93-8.16Q13.54-9.40 14.69-10.08Q15.84-10.76 17.42-10.76L17.42-10.76Q19.65-10.76 20.94-9.38Q22.23-8.00 22.23-5.53L22.23-5.53L22.23-4.25L15.68-4.25Q15.86-3.36 16.46-2.85Q17.05-2.34 18.00-2.34L18.00-2.34Q19.56-2.34 20.44-3.44L20.44-3.44L21.94-1.66Q21.33-0.81 20.20-0.31Q19.07 0.20 17.77 0.20ZM17.40-8.22L17.40-8.22Q15.96-8.22 15.68-6.31L15.68-6.31L19.00-6.31L19.00-6.56Q19.02-7.35 18.60-7.79Q18.18-8.22 17.40-8.22ZM26.35-10.57L27.83-7.66L29.37-10.57L32.78-10.57L30-5.42L32.92 0L29.48 0L27.82-3.13L26.19 0L22.73 0L25.66-5.42L22.89-10.57L26.35-10.57ZM34.38-13.19L37.68-13.19L37.68-10.57L39.41-10.57L39.41-8.28L37.68-8.28L37.68-3.45Q37.68-2.85 37.89-2.62Q38.11-2.38 38.74-2.38L38.74-2.38Q39.23-2.38 39.56-2.44L39.56-2.44L39.56-0.09Q38.67 0.20 37.71 0.20L37.71 0.20Q36.01 0.20 35.20-0.61Q34.38-1.41 34.38-3.04L34.38-3.04L34.38-8.28L33.04-8.28L33.04-10.57L34.38-10.57L34.38-13.19Z"></path></g></g></svg>